<?xml version="1.0" encoding="UTF-8"?>
<svg xmlns="http://www.w3.org/2000/svg" width="128" height="128" viewBox="0 0 128 128" role="img" aria-label="GitHub">
  <title>GitHub</title>
  <rect width="100%" height="100%" fill="none"/>
  <g transform="translate(8,8)">
    <circle cx="56" cy="56" r="56" fill="#181717"/>
    <path fill="#fff" d="M56 26c-16.6 0-30 13.4-30 30 0 13.3 8.6 24.6 20.5 28.6 1.5.3 2-.7 2-1.5 0-.7 0-2.7 0-5.3-8.3 1.8-10-3.6-10-3.6-1.3-3.3-3.2-4.1-3.2-4.1-2.6-1.8.2-1.8.2-1.8 2.9.2 4.4 3 4.4 3 2.6 4.4 6.8 3.1 8.4 2.3.2-1.9 1-3.1 1.8-3.8-6.6-.8-13.6-3.3-13.6-14.8 0-3.3 1.2-6 3-8.1-.3-.8-1.3-4.1.3-8.5 0 0 2.5-.8 8.3 3.1 2.4-.7 5-.9 7.5-.9s5.1.3 7.5.9c5.8-3.9 8.3-3.1 8.3-3.1 1.6 4.4.6 7.7.3 8.5 1.9 2.1 3 4.8 3 8.1 0 11.5-7 14-13.6 14.8 1 .9 1.9 2.6 1.9 5.3 0 3.8 0 6.9 0 7.8 0 .8.5 1.8 2 1.5C77.4 80.6 86 69.3 86 56c0-16.6-13.4-30-30-30z"/>
  </g>
</svg>


