<svg xmlns="http://www.w3.org/2000/svg" width="900" height="256" viewBox="0 0 900 256" style="background:#0d1117;border-radius:16px;font-family:Segoe UI,Arial,sans-serif;">
<style>.title{fill:#e6edf3;font-size:24px;font-weight:700;}.label{fill:#9ba3af;font-size:15px;}.value{fill:#e6edf3;font-size:15px;font-weight:600;}</style>
<text x="30" y="30" class="title">Top Languages (by repo count)</text>
<text x="30" y="54" class="label">Python</text>
<rect x="220" y="40" width="520" height="18" rx="6" ry="6" fill="#238636" />
<text x="750" y="54" class="value">66 repos</text>
<text x="30" y="82" class="label">JavaScript</text>
<rect x="220" y="68" width="133" height="18" rx="6" ry="6" fill="#238636" />
<text x="363" y="82" class="value">17 repos</text>
<text x="30" y="110" class="label">Vue</text>
<rect x="220" y="96" width="118" height="18" rx="6" ry="6" fill="#238636" />
<text x="348" y="110" class="value">15 repos</text>
<text x="30" y="138" class="label">HTML</text>
<rect x="220" y="124" width="94" height="18" rx="6" ry="6" fill="#238636" />
<text x="324" y="138" class="value">12 repos</text>
<text x="30" y="166" class="label">CSS</text>
<rect x="220" y="152" width="31" height="18" rx="6" ry="6" fill="#238636" />
<text x="261" y="166" class="value">4 repos</text>
<text x="30" y="194" class="label">Go</text>
<rect x="220" y="180" width="16" height="18" rx="6" ry="6" fill="#238636" />
<text x="246" y="194" class="value">1 repos</text>
<text x="30" y="222" class="label">Shell</text>
<rect x="220" y="208" width="16" height="18" rx="6" ry="6" fill="#238636" />
<text x="246" y="222" class="value">1 repos</text>
</svg>